<svg width="16" height="16" viewBox="0 0 16 16" fill="none" xmlns="http://www.w3.org/2000/svg">
<g clip-path="url(#clip0_35_6)">
<path d="M2.98438 1.00391C1.32031 1.00391 -0.015625 2.34375 -0.015625 4.00391V11.0039C-0.015625 12.668 1.32031 14.0039 2.98438 14.0039H12.9844C14.6445 14.0039 15.9844 12.668 15.9844 11.0039V4.00391C15.9844 2.34375 14.6445 1.00391 12.9844 1.00391H2.98438ZM2.98438 3.00391H12.9844C13.5352 3.00391 13.9844 3.44922 13.9844 4.00391V11.0039C13.9844 11.5586 13.5352 12.0039 12.9844 12.0039H2.98438C2.42969 12.0039 1.98438 11.5586 1.98438 11.0039V4.00391C1.98438 3.44922 2.42969 3.00391 2.98438 3.00391Z" fill="white"/>
<path d="M7.98438 16.0039C10.9844 16.0039 11.9844 15.0039 11.9844 15.0039H3.98438C3.98438 15.0039 4.98438 16.0039 7.98438 16.0039Z" fill="white"/>
<line x1="8" y1="2" x2="8" y2="13" stroke="white" stroke-width="2"/>
</g>
<defs>
<clipPath id="clip0_35_6">
<rect width="16" height="16" fill="white"/>
</clipPath>
</defs>
</svg>
