<svg width="16" height="16" viewBox="0 0 16 16" fill="none" xmlns="http://www.w3.org/2000/svg">
<path d="M7.5 1.01953C6.94922 1.01953 6.50391 1.46484 6.50391 2.01563V2.46875C6.03125 2.59766 5.57422 2.78906 5.14844 3.03516L4.82422 2.71094C4.43359 2.32031 3.80469 2.32031 3.41406 2.71094L2.71094 3.41797C2.32031 3.80859 2.32031 4.4375 2.71094 4.82813L3.03125 5.14844C2.78516 5.57422 2.59766 6.03125 2.46875 6.50391H2.01563C1.46484 6.50391 1.01953 6.94922 1.01953 7.5V8.5C1.01953 9.05078 1.46484 9.49609 2.01563 9.49609H2.46484C2.59766 9.96875 2.78516 10.4258 3.03125 10.8516L2.71094 11.1719C2.32031 11.5625 2.32031 12.1914 2.71094 12.582L3.41406 13.2891C3.80469 13.6797 4.43359 13.6797 4.82422 13.2891L5.14453 12.9688C5.57422 13.2109 6.02734 13.4023 6.50391 13.5273V13.9844C6.50391 14.5352 6.94922 14.9805 7.5 14.9805H8.49609C9.05078 14.9805 9.49609 14.5352 9.49609 13.9844V13.5312C9.96875 13.4023 10.4258 13.2109 10.8516 12.9648L11.1719 13.2891C11.5625 13.6797 12.1914 13.6797 12.582 13.2891L13.2891 12.582C13.6797 12.1914 13.6797 11.5625 13.2891 11.1719L12.9688 10.8516C13.2109 10.4258 13.4023 9.96875 13.5273 9.49609H13.9805C14.5352 9.49609 14.9805 9.05078 14.9805 8.5V7.5C14.9805 6.94922 14.5352 6.50391 13.9805 6.50391H13.5312C13.4023 6.03125 13.2109 5.57422 12.9648 5.14844L13.2891 4.82813C13.6797 4.4375 13.6797 3.80859 13.2891 3.41797L12.582 2.71094C12.1914 2.32031 11.5625 2.32031 11.1719 2.71094L10.8516 3.03125C10.4258 2.78906 9.96875 2.60156 9.49609 2.47266V2.01563C9.49609 1.46484 9.05078 1.01953 8.49609 1.01953H7.5ZM8.01562 4.99609C9.67578 4.99609 11.0156 6.33984 11.0156 7.99609C11.0156 9.65234 9.67578 10.9961 8.01562 10.9961C6.35938 10.9961 5.01563 9.65234 5.01563 7.99609C5.01563 6.33984 6.35938 4.99609 8.01562 4.99609Z" fill="white"/>
</svg>
