<svg width="16" height="16" viewBox="0 0 16 16" fill="none" xmlns="http://www.w3.org/2000/svg">
<g clip-path="url(#clip0_35_2)">
<g filter="url(#filter0_d_35_2)">
<path d="M8.30818 3.18756C6.60331 3.18756 5.21631 4.57456 5.21631 6.27943C5.21631 7.10686 5.54261 8.04578 6.08918 8.79103C6.70738 9.63397 7.49547 10.0982 8.30818 10.0982C9.12093 10.0982 9.90898 9.63401 10.5272 8.79103C11.0738 8.04578 11.4001 7.10686 11.4001 6.27943C11.4001 4.57456 10.013 3.18756 8.30818 3.18756ZM8.30818 9.43902C7.71947 9.43902 7.10443 9.06077 6.62076 8.40118C6.16107 7.77441 5.87551 6.9614 5.87551 6.27943C5.87551 4.93805 6.96679 3.84676 8.30818 3.84676C9.64956 3.84676 10.7408 4.93805 10.7408 6.27943C10.7409 7.67215 9.59546 9.43902 8.30818 9.43902Z" fill="black"/>
<path d="M8.30818 3.18756C6.60331 3.18756 5.21631 4.57456 5.21631 6.27943C5.21631 7.10686 5.54261 8.04578 6.08918 8.79103C6.70738 9.63397 7.49547 10.0982 8.30818 10.0982C9.12093 10.0982 9.90898 9.63401 10.5272 8.79103C11.0738 8.04578 11.4001 7.10686 11.4001 6.27943C11.4001 4.57456 10.013 3.18756 8.30818 3.18756ZM8.30818 9.43902C7.71947 9.43902 7.10443 9.06077 6.62076 8.40118C6.16107 7.77441 5.87551 6.9614 5.87551 6.27943C5.87551 4.93805 6.96679 3.84676 8.30818 3.84676C9.64956 3.84676 10.7408 4.93805 10.7408 6.27943C10.7409 7.67215 9.59546 9.43902 8.30818 9.43902Z" stroke="white"/>
</g>
<path d="M8.30798 1C4.27838 1 1 4.27834 1 8.30798C1 12.3376 4.27834 15.616 8.30798 15.616C12.3376 15.616 15.616 12.3376 15.616 8.30798C15.616 4.27834 12.3376 1 8.30798 1ZM8.30798 14.9568C6.98523 14.9567 5.75156 14.5683 4.71477 13.8998C4.75081 12.8903 5.20776 11.944 5.98149 11.287C6.28894 11.0259 6.7379 10.9973 7.0987 11.216C7.48842 11.4521 7.89532 11.5719 8.30811 11.5719C8.72082 11.5719 9.12759 11.4522 9.51713 11.2162C9.87754 10.9977 10.3253 11.0252 10.6313 11.2845C11.4056 11.9406 11.8652 12.8897 11.9012 13.8998C10.8644 14.5684 9.63069 14.9568 8.30798 14.9568ZM12.5225 13.4465C12.3802 12.4145 11.8628 11.464 11.0575 10.7816C10.5349 10.3388 9.77862 10.2869 9.17549 10.6524C8.60533 10.9979 8.01064 10.9978 7.44034 10.6522C6.83652 10.2863 6.07883 10.3395 5.55477 10.7845C4.7501 11.4678 4.23483 12.4156 4.09288 13.4461C2.60797 12.2257 1.6592 10.3756 1.6592 8.30803C1.6592 4.64182 4.64186 1.6592 8.30798 1.6592C11.9741 1.6592 14.9568 4.64182 14.9568 8.30798C14.9568 10.3758 14.0078 12.2261 12.5225 13.4465Z" fill="black" stroke="white"/>
</g>
<defs>
<filter id="filter0_d_35_2" x="0.716309" y="2.68756" width="15.1838" height="15.9106" filterUnits="userSpaceOnUse" color-interpolation-filters="sRGB">
<feFlood flood-opacity="0" result="BackgroundImageFix"/>
<feColorMatrix in="SourceAlpha" type="matrix" values="0 0 0 0 0 0 0 0 0 0 0 0 0 0 0 0 0 0 127 0" result="hardAlpha"/>
<feOffset dy="4"/>
<feGaussianBlur stdDeviation="2"/>
<feComposite in2="hardAlpha" operator="out"/>
<feColorMatrix type="matrix" values="0 0 0 0 0 0 0 0 0 0 0 0 0 0 0 0 0 0 0.25 0"/>
<feBlend mode="normal" in2="BackgroundImageFix" result="effect1_dropShadow_35_2"/>
<feBlend mode="normal" in="SourceGraphic" in2="effect1_dropShadow_35_2" result="shape"/>
</filter>
<clipPath id="clip0_35_2">
<rect width="16" height="16" fill="white"/>
</clipPath>
</defs>
</svg>
