<svg width="500" height="500" viewBox="0 0 500 500" fill="none" xmlns="http://www.w3.org/2000/svg">
<rect width="500" height="500" fill="black"/>
<path d="M239.661 238.764L301.982 201.669L239.661 99.3109L177.19 202.018L239.661 238.764Z" stroke="#C5DAF7" stroke-width="7.20537" stroke-miterlimit="10" stroke-linecap="round" stroke-linejoin="round"/>
<path d="M239.661 256.892L301.982 219.798L239.661 301.517L177.19 220.147L239.661 256.892Z" stroke="#C5DAF7" stroke-width="7.20537" stroke-miterlimit="10" stroke-linecap="round" stroke-linejoin="round"/>
<mask id="mask0_2_24" style="mask-type:luminance" maskUnits="userSpaceOnUse" x="117" y="186" width="267" height="49">
<path d="M117.902 186.458H383.589V234.917H117.902V186.458Z" fill="white"/>
</mask>
<g mask="url(#mask0_2_24)">
<path d="M210.678 234.917C204.542 234.917 198.61 233.838 192.777 231.682C184.459 228.599 177.209 223.406 170.199 218.385C167.933 216.76 165.589 215.083 163.266 213.521C148.49 203.562 133.714 200.88 119.36 205.536L117.907 201.015C126.126 198.349 134.563 197.864 142.996 199.568C150.636 201.12 158.345 204.484 165.902 209.573C168.282 211.177 170.652 212.875 172.943 214.515C179.699 219.359 186.688 224.364 194.412 227.224C217.923 235.927 240.86 223.276 258.22 211.281C259.048 210.708 259.881 210.13 260.72 209.552C275.897 199.026 291.589 188.146 310.115 186.786C325.277 185.672 339.579 191.26 353.412 196.661C363.183 200.479 373.282 204.427 383.516 205.917L382.839 210.62C372.068 209.047 361.714 205 351.699 201.088C337.74 195.64 324.558 190.489 310.459 191.526C293.214 192.792 278.058 203.297 263.402 213.463C262.568 214.042 261.73 214.62 260.897 215.198C248.756 223.588 238.61 228.906 228.964 231.937C222.636 233.922 216.563 234.917 210.678 234.917Z" fill="#5E2590"/>
</g>
<path d="M208.449 230.76C202.97 230.76 197.537 229.911 192.277 228.224C183.579 225.443 175.881 220.437 168.433 215.594C166.027 214.026 163.542 212.406 161.079 210.906C145.381 201.328 130.032 199.25 115.443 204.719L113.792 200.265C122.115 197.146 130.772 196.255 139.516 197.62C147.443 198.854 155.527 201.958 163.532 206.844C166.053 208.385 168.568 210.021 171.006 211.604C178.188 216.276 185.615 221.109 193.709 223.698C218.345 231.578 241.397 217.479 258.73 204.318C259.558 203.687 260.391 203.052 261.225 202.417C276.36 190.885 292.006 178.958 310.996 176.703C326.542 174.854 341.511 179.937 355.996 184.854C366.23 188.333 376.813 191.927 387.433 192.989L386.964 197.719C375.813 196.599 364.97 192.917 354.48 189.359C339.85 184.39 326.037 179.698 311.553 181.422C293.839 183.526 278.709 195.052 264.084 206.203C263.246 206.838 262.412 207.474 261.579 208.104C249.475 217.302 239.277 223.245 229.496 226.807C223.35 229.047 217.266 230.349 211.428 230.677C210.433 230.729 209.438 230.76 208.449 230.76Z" fill="#2C3892"/>
<path d="M206.214 226.713C201.35 226.713 196.511 226.062 191.772 224.765C182.693 222.281 174.548 217.458 166.667 212.792C164.121 211.286 161.485 209.724 158.881 208.281C142.272 199.088 126.339 197.614 111.522 203.896L109.683 199.521C118.115 195.943 126.98 194.651 136.042 195.672C144.256 196.599 152.709 199.443 161.162 204.12C163.829 205.599 166.49 207.177 169.068 208.698C176.678 213.203 184.548 217.864 193.011 220.182C218.777 227.234 241.943 211.682 259.251 197.349C260.079 196.661 260.907 195.974 261.74 195.281C276.829 182.739 292.433 169.776 311.886 166.62C327.808 164.042 343.454 168.625 358.579 173.057C369.282 176.193 380.355 179.437 391.35 180.068L391.079 184.812C379.548 184.146 368.214 180.828 357.256 177.62C341.959 173.135 327.506 168.901 312.641 171.312C294.454 174.26 279.355 186.807 264.751 198.943C263.917 199.635 263.089 200.328 262.256 201.015C250.183 211.015 239.938 217.583 230.016 221.682C223.787 224.255 217.584 225.859 211.584 226.448C209.792 226.625 208.001 226.713 206.214 226.713Z" fill="#40B93C"/>
<path d="M203.985 222.755C199.719 222.755 195.459 222.271 191.261 221.297C181.808 219.109 173.214 214.474 164.902 209.989C162.214 208.536 159.433 207.036 156.683 205.656C139.157 196.844 122.641 195.974 107.589 203.073L105.579 198.776C114.121 194.745 123.199 193.047 132.574 193.729C141.074 194.349 149.897 196.932 158.798 201.406C161.61 202.818 164.423 204.338 167.141 205.802C175.173 210.14 183.485 214.625 192.318 216.667C219.214 222.89 242.496 205.885 259.777 190.38C260.605 189.635 261.433 188.89 262.261 188.146C277.308 174.599 292.865 160.588 312.782 156.542C329.084 153.229 345.397 157.312 361.173 161.26C372.345 164.057 383.897 166.948 395.272 167.151L395.188 171.901C383.277 171.693 371.459 168.734 360.027 165.87C344.058 161.875 328.975 158.099 313.72 161.198C295.063 164.989 279.99 178.562 265.417 191.682C264.584 192.432 263.756 193.177 262.928 193.922C250.886 204.729 240.595 211.922 230.532 216.552C224.22 219.458 217.891 221.364 211.735 222.219C209.157 222.578 206.568 222.755 203.985 222.755Z" fill="#F8BD0A"/>
<path d="M201.756 218.88C198.079 218.88 194.397 218.526 190.74 217.823C180.912 215.932 171.871 211.484 163.131 207.177C160.298 205.781 157.371 204.338 154.48 203.021C136.032 194.594 118.933 194.333 103.652 202.25L101.485 198.031C110.131 193.552 119.423 191.453 129.11 191.792C137.897 192.104 147.095 194.427 156.438 198.698C159.391 200.047 162.35 201.5 165.209 202.911C173.673 207.078 182.423 211.385 191.631 213.161C219.657 218.552 243.058 200.094 260.313 183.411C261.136 182.614 261.959 181.812 262.787 181.01C277.792 166.453 293.308 151.406 313.683 146.469C330.36 142.427 347.345 146.01 363.766 149.474C375.407 151.927 387.443 154.469 399.199 154.234L399.292 158.984C386.99 159.229 374.693 156.635 362.798 154.12C346.152 150.609 330.433 147.292 314.792 151.083C295.662 155.724 280.621 170.312 266.074 184.427C265.246 185.229 264.417 186.031 263.589 186.833C251.579 198.443 241.24 206.255 231.042 211.422C224.641 214.661 218.199 216.87 211.881 217.989C208.522 218.583 205.141 218.88 201.756 218.88Z" fill="#F14624"/>
<mask id="mask1_2_24" style="mask-type:luminance" maskUnits="userSpaceOnUse" x="97" y="133" width="307" height="83">
<path d="M97.3966 133.922H403.391V215.234H97.3966V133.922Z" fill="white"/>
</mask>
<g mask="url(#mask1_2_24)">
<path d="M199.532 215.073C196.428 215.073 193.318 214.833 190.219 214.349C180.016 212.755 170.532 208.484 161.355 204.359C158.381 203.021 155.308 201.64 152.277 200.38C132.907 192.338 115.219 192.687 99.7091 201.427L97.3966 197.286C106.141 192.359 115.647 189.859 125.636 189.859H125.652C134.725 189.859 144.292 191.922 154.079 195.989C157.178 197.276 160.282 198.672 163.287 200.026C172.178 204.021 181.371 208.156 190.949 209.656C220.11 214.213 243.626 194.297 260.855 176.437C261.678 175.583 262.501 174.729 263.324 173.87C278.282 158.312 293.751 142.224 314.594 136.39C331.647 131.62 349.298 134.703 366.371 137.687C378.48 139.802 391.001 141.989 403.136 141.323L403.391 146.068C390.72 146.76 377.928 144.531 365.558 142.37C348.246 139.344 331.891 136.484 315.86 140.969C296.261 146.453 281.246 162.068 266.725 177.172C265.897 178.031 265.074 178.89 264.246 179.745C252.272 192.156 241.881 200.594 231.548 206.286C225.063 209.859 218.496 212.375 212.022 213.755C207.897 214.635 203.72 215.073 199.532 215.073Z" fill="#ED1C24"/>
</g>
<path d="M118.146 366.987C115.313 366.987 112.771 366.528 110.521 365.612C108.281 364.685 106.49 363.315 105.146 361.508C103.813 359.706 103.104 357.539 103.021 355.008H113.083C113.219 356.44 113.714 357.539 114.563 358.299C115.406 359.049 116.51 359.424 117.875 359.424C119.276 359.424 120.38 359.107 121.188 358.466C121.99 357.815 122.396 356.919 122.396 355.778C122.396 354.82 122.073 354.028 121.438 353.403C120.797 352.778 120.005 352.268 119.063 351.862C118.13 351.445 116.797 350.982 115.063 350.466C112.563 349.706 110.521 348.935 108.938 348.153C107.354 347.377 105.99 346.237 104.854 344.737C103.714 343.226 103.146 341.252 103.146 338.82C103.146 335.211 104.448 332.383 107.063 330.341C109.672 328.299 113.073 327.278 117.271 327.278C121.531 327.278 124.969 328.299 127.583 330.341C130.208 332.383 131.609 335.232 131.792 338.883H121.583C121.5 337.633 121.031 336.648 120.188 335.924C119.339 335.206 118.255 334.841 116.938 334.841C115.797 334.841 114.875 335.148 114.167 335.758C113.469 336.372 113.125 337.247 113.125 338.383C113.125 339.633 113.714 340.612 114.896 341.32C116.073 342.018 117.917 342.768 120.417 343.57C122.917 344.419 124.943 345.232 126.5 346.008C128.068 346.773 129.422 347.893 130.563 349.362C131.714 350.836 132.292 352.732 132.292 355.049C132.292 357.258 131.729 359.268 130.604 361.07C129.479 362.877 127.844 364.315 125.708 365.383C123.583 366.456 121.063 366.987 118.146 366.987Z" fill="#C5DAF7"/>
<path d="M167.62 340.32C167.62 342.56 167.104 344.607 166.078 346.466C165.047 348.331 163.464 349.831 161.328 350.966C159.188 352.107 156.537 352.674 153.37 352.674H147.516V366.591H138.078V327.841H153.37C156.464 327.841 159.078 328.377 161.203 329.445C163.339 330.502 164.943 331.976 166.016 333.862C167.084 335.737 167.62 337.893 167.62 340.32ZM152.662 345.174C154.464 345.174 155.808 344.752 156.683 343.903C157.568 343.06 158.016 341.862 158.016 340.32C158.016 338.768 157.568 337.565 156.683 336.716C155.808 335.872 154.464 335.445 152.662 335.445H147.516V345.174H152.662Z" fill="#C5DAF7"/>
<path d="M181.966 335.403V343.237H194.612V350.528H181.966V359.028H196.278V366.591H172.528V327.841H196.278V335.403H181.966Z" fill="#C5DAF7"/>
<path d="M200.792 347.153C200.792 343.336 201.615 339.924 203.271 336.924C204.938 333.924 207.251 331.591 210.209 329.924C213.178 328.247 216.542 327.403 220.292 327.403C224.886 327.403 228.823 328.622 232.105 331.049C235.381 333.466 237.568 336.773 238.667 340.966H228.292C227.511 339.357 226.417 338.127 225.001 337.278C223.584 336.435 221.98 336.008 220.188 336.008C217.271 336.008 214.907 337.023 213.105 339.049C211.313 341.065 210.417 343.768 210.417 347.153C210.417 350.544 211.313 353.252 213.105 355.278C214.907 357.31 217.271 358.32 220.188 358.32C221.98 358.32 223.584 357.898 225.001 357.049C226.417 356.206 227.511 354.966 228.292 353.341H238.667C237.568 357.539 235.381 360.841 232.105 363.258C228.823 365.664 224.886 366.862 220.292 366.862C216.542 366.862 213.178 366.028 210.209 364.362C207.251 362.685 204.938 360.357 203.271 357.383C201.615 354.398 200.792 350.987 200.792 347.153Z" fill="#C5DAF7"/>
<path d="M272.361 327.841V335.403H262.09V366.591H252.632V335.403H242.382V327.841H272.361Z" fill="#C5DAF7"/>
<path d="M296.864 366.591L288.802 351.966H286.531V366.591H277.094V327.841H292.948C296 327.841 298.604 328.377 300.76 329.445C302.911 330.502 304.521 331.961 305.594 333.82C306.661 335.685 307.198 337.752 307.198 340.028C307.198 342.612 306.469 344.919 305.01 346.945C303.552 348.961 301.406 350.393 298.573 351.237L307.51 366.591H296.864ZM286.531 345.278H292.385C294.12 345.278 295.416 344.857 296.281 344.008C297.14 343.164 297.573 341.966 297.573 340.424C297.573 338.956 297.14 337.794 296.281 336.945C295.416 336.101 294.12 335.674 292.385 335.674H286.531V345.278Z" fill="#C5DAF7"/>
<path d="M322.36 327.841V351.028C322.36 353.351 322.928 355.133 324.069 356.383C325.22 357.633 326.902 358.258 329.11 358.258C331.319 358.258 333.006 357.633 334.173 356.383C335.35 355.133 335.944 353.351 335.944 351.028V327.841H345.402V350.966C345.402 354.424 344.662 357.357 343.194 359.758C341.72 362.148 339.741 363.956 337.256 365.174C334.767 366.383 331.996 366.987 328.944 366.987C325.886 366.987 323.152 366.393 320.735 365.195C318.329 363.987 316.428 362.185 315.027 359.778C313.621 357.362 312.923 354.424 312.923 350.966V327.841H322.36Z" fill="#C5DAF7"/>
<path d="M395.907 327.841V366.591H386.47V343.341L377.803 366.591H370.178L361.449 343.299V366.591H352.012V327.841H363.178L374.053 354.674L384.803 327.841H395.907Z" fill="#C5DAF7"/>
<path d="M104.858 381.128V391.774C104.858 392.831 105.113 393.649 105.628 394.232C106.154 394.805 106.925 395.086 107.941 395.086C108.951 395.086 109.733 394.805 110.274 394.232C110.816 393.649 111.087 392.831 111.087 391.774V381.128H115.42V391.753C115.42 393.336 115.076 394.68 114.399 395.774C113.733 396.873 112.826 397.706 111.691 398.274C110.55 398.831 109.279 399.107 107.878 399.107C106.472 399.107 105.217 398.831 104.108 398.274C102.993 397.722 102.118 396.894 101.483 395.795C100.842 394.685 100.524 393.336 100.524 391.753V381.128H104.858Z" fill="#8091AA"/>
<path d="M127.055 395.566H132.722V398.92H122.701V381.128H127.055V395.566Z" fill="#8091AA"/>
<path d="M151.846 381.128V384.586H147.138V398.92H142.805V384.586H138.075V381.128H151.846Z" fill="#8091AA"/>
<path d="M162.611 381.128V398.92H158.257V381.128H162.611Z" fill="#8091AA"/>
<path d="M190.141 381.128V398.92H185.808V388.253L181.828 398.92H178.328L174.328 388.211V398.92H169.974V381.128H175.099L180.099 393.441L185.037 381.128H190.141Z" fill="#8091AA"/>
<path d="M208.574 395.774H201.928L200.865 398.92H196.324L202.782 381.128H207.803L214.24 398.92H209.636L208.574 395.774ZM207.469 392.42L205.261 385.92L203.074 392.42H207.469Z" fill="#8091AA"/>
<path d="M233.229 381.128V384.586H228.52V398.92H224.187V384.586H219.458V381.128H233.229Z" fill="#8091AA"/>
<path d="M243.994 384.586V388.191H249.785V391.545H243.994V395.441H250.556V398.92H239.64V381.128H250.556V384.586H243.994Z" fill="#8091AA"/>
<path d="M273.666 399.107C272.358 399.107 271.186 398.899 270.145 398.482C269.114 398.055 268.296 397.42 267.686 396.586C267.072 395.753 266.749 394.753 266.707 393.586H271.332C271.384 394.253 271.608 394.764 271.999 395.107C272.384 395.456 272.895 395.628 273.52 395.628C274.171 395.628 274.676 395.482 275.041 395.191C275.416 394.889 275.603 394.472 275.603 393.941C275.603 393.514 275.457 393.149 275.166 392.857C274.874 392.566 274.509 392.331 274.082 392.149C273.65 391.972 273.03 391.764 272.228 391.524C271.088 391.165 270.15 390.81 269.416 390.461C268.692 390.102 268.067 389.576 267.541 388.878C267.025 388.185 266.77 387.284 266.77 386.17C266.77 384.519 267.364 383.222 268.561 382.274C269.754 381.331 271.317 380.857 273.249 380.857C275.207 380.857 276.78 381.331 277.978 382.274C279.186 383.222 279.832 384.524 279.916 386.191H275.228C275.197 385.623 274.989 385.17 274.603 384.836C274.213 384.503 273.713 384.336 273.103 384.336C272.572 384.336 272.15 384.477 271.832 384.753C271.509 385.034 271.353 385.435 271.353 385.961C271.353 386.534 271.624 386.982 272.166 387.316C272.707 387.639 273.546 387.982 274.686 388.357C275.838 388.748 276.775 389.123 277.499 389.482C278.218 389.831 278.838 390.347 279.353 391.024C279.879 391.691 280.145 392.56 280.145 393.628C280.145 394.644 279.884 395.566 279.374 396.399C278.858 397.222 278.108 397.878 277.124 398.378C276.15 398.868 274.999 399.107 273.666 399.107Z" fill="#8091AA"/>
<path d="M299.852 381.128V384.586H295.144V398.92H290.81V384.586H286.081V381.128H299.852Z" fill="#8091AA"/>
<path d="M310.534 381.128V391.774C310.534 392.831 310.789 393.649 311.304 394.232C311.831 394.805 312.601 395.086 313.617 395.086C314.627 395.086 315.409 394.805 315.95 394.232C316.492 393.649 316.763 392.831 316.763 391.774V381.128H321.096V391.753C321.096 393.336 320.752 394.68 320.075 395.774C319.409 396.873 318.502 397.706 317.367 398.274C316.226 398.831 314.956 399.107 313.554 399.107C312.148 399.107 310.893 398.831 309.784 398.274C308.669 397.722 307.794 396.894 307.159 395.795C306.518 394.685 306.2 393.336 306.2 391.753V381.128H310.534Z" fill="#8091AA"/>
<path d="M335.065 381.128C336.94 381.128 338.575 381.503 339.981 382.253C341.382 382.993 342.466 384.034 343.231 385.378C343.992 386.711 344.377 388.264 344.377 390.024C344.377 391.764 343.992 393.31 343.231 394.67C342.466 396.019 341.377 397.066 339.961 397.816C338.544 398.555 336.908 398.92 335.065 398.92H328.377V381.128H335.065ZM334.773 395.17C336.408 395.17 337.69 394.727 338.606 393.836C339.523 392.935 339.981 391.665 339.981 390.024C339.981 388.389 339.523 387.107 338.606 386.191C337.69 385.274 336.408 384.816 334.773 384.816H332.731V395.17H334.773Z" fill="#8091AA"/>
<path d="M355.404 381.128V398.92H351.05V381.128H355.404Z" fill="#8091AA"/>
<path d="M371.183 399.107C369.517 399.107 367.98 398.722 366.579 397.941C365.189 397.165 364.084 396.081 363.267 394.691C362.444 393.29 362.038 391.711 362.038 389.961C362.038 388.227 362.444 386.665 363.267 385.274C364.084 383.889 365.189 382.805 366.579 382.024C367.98 381.248 369.517 380.857 371.183 380.857C372.86 380.857 374.397 381.248 375.788 382.024C377.189 382.805 378.288 383.889 379.079 385.274C379.881 386.665 380.288 388.227 380.288 389.961C380.288 391.711 379.881 393.29 379.079 394.691C378.272 396.081 377.173 397.165 375.788 397.941C374.397 398.722 372.86 399.107 371.183 399.107ZM371.183 395.149C372.61 395.149 373.751 394.68 374.6 393.732C375.459 392.774 375.892 391.519 375.892 389.961C375.892 388.394 375.459 387.144 374.6 386.211C373.751 385.269 372.61 384.795 371.183 384.795C369.751 384.795 368.605 385.264 367.746 386.191C366.897 387.123 366.475 388.378 366.475 389.961C366.475 391.545 366.897 392.81 367.746 393.753C368.605 394.685 369.751 395.149 371.183 395.149Z" fill="#8091AA"/>
<path d="M393.394 399.107C392.086 399.107 390.914 398.899 389.873 398.482C388.841 398.055 388.024 397.42 387.414 396.586C386.8 395.753 386.477 394.753 386.435 393.586H391.06C391.112 394.253 391.336 394.764 391.727 395.107C392.112 395.456 392.623 395.628 393.248 395.628C393.899 395.628 394.404 395.482 394.769 395.191C395.144 394.889 395.331 394.472 395.331 393.941C395.331 393.514 395.185 393.149 394.894 392.857C394.602 392.566 394.237 392.331 393.81 392.149C393.378 391.972 392.758 391.764 391.956 391.524C390.815 391.165 389.878 390.81 389.144 390.461C388.42 390.102 387.795 389.576 387.269 388.878C386.753 388.185 386.498 387.284 386.498 386.17C386.498 384.519 387.091 383.222 388.289 382.274C389.482 381.331 391.045 380.857 392.977 380.857C394.935 380.857 396.508 381.331 397.706 382.274C398.914 383.222 399.56 384.524 399.644 386.191H394.956C394.925 385.623 394.716 385.17 394.331 384.836C393.94 384.503 393.44 384.336 392.831 384.336C392.3 384.336 391.878 384.477 391.56 384.753C391.237 385.034 391.081 385.435 391.081 385.961C391.081 386.534 391.352 386.982 391.894 387.316C392.435 387.639 393.274 387.982 394.414 388.357C395.565 388.748 396.503 389.123 397.227 389.482C397.946 389.831 398.565 390.347 399.081 391.024C399.607 391.691 399.873 392.56 399.873 393.628C399.873 394.644 399.612 395.566 399.102 396.399C398.586 397.222 397.836 397.878 396.852 398.378C395.878 398.868 394.727 399.107 393.394 399.107Z" fill="#8091AA"/>
<mask id="mask2_2_24" style="mask-type:luminance" maskUnits="userSpaceOnUse" x="238" y="70" width="73" height="177">
<path d="M241.957 73.9694H306.605V242.681H241.957V73.9694Z" fill="white" stroke="white" stroke-width="7.20537"/>
</mask>
<g mask="url(#mask2_2_24)">
<path d="M240.03 238.824L302.352 201.729L240.03 99.371L177.559 202.078L240.03 238.824Z" stroke="#C5DAF7" stroke-width="7.20537" stroke-miterlimit="10" stroke-linecap="round" stroke-linejoin="round"/>
</g>
</svg>
