<svg width="175" height="123" viewBox="0 0 175 123" fill="none" xmlns="http://www.w3.org/2000/svg">
<path d="M86.5304 69L112 53.838L86.5304 12L61 53.9805L86.5304 69Z" stroke="#C5DAF7" stroke-width="4" stroke-miterlimit="10" stroke-linecap="round" stroke-linejoin="round"/>
<path d="M86.5304 75.9795L112 61L86.5304 94L61 61.1408L86.5304 75.9795Z" stroke="#C5DAF7" stroke-width="4" stroke-miterlimit="10" stroke-linecap="round" stroke-linejoin="round"/>
<path d="M74.2758 67.2192C71.7694 67.2192 69.3461 66.7788 66.9631 65.898C63.5653 64.6384 60.6037 62.5172 57.7399 60.4661C56.8144 59.8023 55.8569 59.1172 54.908 58.4789C48.8719 54.4109 42.8359 53.3152 36.9721 55.2173L36.3785 53.3705C39.7359 52.2812 43.1827 52.0833 46.6273 52.779C49.7485 53.4131 52.8974 54.7875 55.9846 56.8662C56.9569 57.5215 57.925 58.2151 58.8611 58.8853C61.6207 60.864 64.4759 62.9086 67.6312 64.0767C77.2353 67.632 86.6053 62.464 93.6967 57.5641C94.035 57.33 94.3754 57.0938 94.718 56.8577C100.918 52.5578 107.328 48.1132 114.896 47.5578C121.09 47.1025 126.932 49.3855 132.583 51.5918C136.575 53.1514 140.7 54.7641 144.881 55.3726L144.604 57.2938C140.204 56.6513 135.975 54.9981 131.883 53.4003C126.181 51.1748 120.796 49.0706 115.037 49.494C107.992 50.011 101.801 54.3024 95.8137 58.4555C95.4733 58.6917 95.1307 58.9279 94.7903 59.164C89.8308 62.5916 85.6862 64.7639 81.7458 66.0022C79.1608 66.8128 76.68 67.2192 74.2758 67.2192Z" fill="#5E2590"/>
<path d="M73.3652 65.5214C71.1269 65.5214 68.9078 65.1746 66.7589 64.4852C63.2058 63.3491 60.0612 61.3044 57.0187 59.3257C56.0357 58.6853 55.0208 58.0236 54.0144 57.4109C47.6018 53.4982 41.3317 52.6492 35.3722 54.8832L34.6978 53.0641C38.0977 51.7897 41.6338 51.4259 45.2061 51.9833C48.4443 52.4875 51.7464 53.7556 55.0166 55.7513C56.0463 56.3811 57.074 57.0492 58.0697 57.696C61.0037 59.6044 64.0377 61.5789 67.344 62.6363C77.4077 65.8554 86.8245 60.0959 93.9053 54.7194C94.2435 54.462 94.584 54.2024 94.9244 53.9428C101.107 49.2323 107.499 44.36 115.256 43.4388C121.607 42.6834 127.722 44.76 133.639 46.7685C137.819 48.1897 142.143 49.6578 146.481 50.0918L146.289 52.0237C141.734 51.5663 137.305 50.062 133.019 48.6089C127.043 46.5791 121.401 44.6621 115.484 45.3664C108.248 46.2259 102.067 50.9344 96.0925 55.4896C95.7499 55.7492 95.4095 56.0088 95.0691 56.2662C90.1245 60.0236 85.9586 62.4512 81.9629 63.9065C79.4523 64.8214 76.9672 65.3533 74.5822 65.4873C74.1758 65.5086 73.7694 65.5214 73.3652 65.5214Z" fill="#2C3892"/>
<path d="M72.4524 63.8682C70.4652 63.8682 68.4887 63.6022 66.5525 63.0725C62.8441 62.0576 59.5165 60.0874 56.2974 58.181C55.257 57.5662 54.1804 56.9279 53.1166 56.3385C46.3316 52.5833 39.8232 51.9812 33.7701 54.5471L33.019 52.7599C36.4637 51.2982 40.0849 50.7705 43.7869 51.1875C47.1422 51.5663 50.5953 52.728 54.0485 54.6386C55.1378 55.2428 56.225 55.8875 57.2782 56.5087C60.3867 58.3491 63.6015 60.2533 67.0589 61.2001C77.5842 64.0809 87.0479 57.7279 94.118 51.8726C94.4563 51.5918 94.7946 51.311 95.135 51.028C101.299 45.9047 107.673 40.609 115.62 39.3197C122.124 38.2665 128.515 40.1388 134.694 41.9494C139.066 43.2302 143.59 44.5557 148.081 44.8132L147.97 46.7515C143.26 46.4791 138.63 45.1238 134.154 43.8132C127.905 41.9813 122.001 40.2516 115.928 41.2367C108.499 42.4409 102.331 47.5663 96.3648 52.5237C96.0244 52.8067 95.6861 53.0896 95.3457 53.3705C90.4138 57.4555 86.2288 60.1385 82.1757 61.8129C79.631 62.8639 77.097 63.5193 74.646 63.7597C73.9141 63.832 73.1822 63.8682 72.4524 63.8682Z" fill="#40B93C"/>
<path d="M71.5418 62.2512C69.7993 62.2512 68.0589 62.0534 66.3441 61.6555C62.4824 60.7619 58.9718 58.8683 55.5762 57.0364C54.4783 56.4428 53.3422 55.8301 52.2188 55.2662C45.0593 51.6663 38.3126 51.311 32.1638 54.2109L31.3425 52.4556C34.8318 50.8089 38.5403 50.1153 42.37 50.394C45.8423 50.6472 49.4465 51.7025 53.0826 53.5301C54.2315 54.1067 55.3804 54.7279 56.491 55.3258C59.7718 57.0981 63.1675 58.93 66.776 59.764C77.763 62.3065 87.2735 55.3599 94.3329 49.0259C94.6712 48.7217 95.0095 48.4174 95.3478 48.1132C101.495 42.5792 107.85 36.8559 115.986 35.2027C122.645 33.8496 129.309 35.5176 135.754 37.1304C140.317 38.2729 145.036 39.4537 149.683 39.5367L149.649 41.4771C144.783 41.392 139.956 40.1835 135.285 39.0133C128.762 37.3814 122.601 35.8389 116.369 37.1048C108.748 38.6538 102.59 44.1983 96.6372 49.5578C96.2967 49.8642 95.9585 50.1684 95.6202 50.4727C90.7011 54.8875 86.4969 57.8258 82.3863 59.7172C79.8077 60.9044 77.2226 61.6831 74.7077 62.0321C73.6546 62.1789 72.5971 62.2512 71.5418 62.2512Z" fill="#F8BD0A"/>
<path d="M70.6312 60.6683C69.1291 60.6683 67.6248 60.5236 66.1312 60.2364C62.1164 59.464 58.4229 57.647 54.8527 55.8875C53.6953 55.3173 52.4996 54.7279 51.3187 54.1896C43.7827 50.7472 36.7977 50.6408 30.5553 53.8748L29.6702 52.1514C33.202 50.3216 36.9977 49.4642 40.9551 49.6025C44.5444 49.7301 48.3018 50.6791 52.1187 52.4237C53.3251 52.9748 54.5336 53.5684 55.7016 54.145C59.159 55.8471 62.7334 57.6066 66.4951 58.3321C77.9438 60.5342 87.5032 52.9939 94.552 46.1791C94.8882 45.8536 95.2244 45.526 95.5627 45.1983C101.692 39.2516 108.031 33.1049 116.354 31.0879C123.166 29.4369 130.105 30.9007 136.813 32.3155C141.568 33.3177 146.485 34.3559 151.287 34.2602L151.326 36.2006C146.3 36.3006 141.277 35.241 136.417 34.2134C129.617 32.7794 123.196 31.4241 116.807 32.973C108.992 34.8687 102.848 40.8282 96.9052 46.594C96.5669 46.9217 96.2286 47.2493 95.8903 47.577C90.984 52.3195 86.7607 55.5109 82.5948 57.6215C79.9799 58.9449 77.3481 59.847 74.7673 60.3044C73.3949 60.547 72.0141 60.6683 70.6312 60.6683Z" fill="#F14624"/>
<path d="M69.7227 59.1129C68.4546 59.1129 67.1844 59.015 65.9185 58.8171C61.7505 58.1661 57.8761 56.4214 54.1272 54.7363C52.9123 54.1895 51.657 53.6257 50.4188 53.1108C42.5061 49.8258 35.2807 49.9683 28.9447 53.5385L28 51.847C31.5723 49.8343 35.4552 48.813 39.536 48.813H39.5424C43.2487 48.813 47.1571 49.6556 51.1549 51.3173C52.4209 51.8428 53.6889 52.413 54.9166 52.9662C58.5484 54.598 62.3037 56.2874 66.2164 56.9001C78.1289 58.7618 87.7352 50.6258 94.7733 43.3302C95.1095 42.9812 95.4457 42.6323 95.7818 42.2812C101.892 35.926 108.211 29.3538 116.726 26.9709C123.692 25.022 130.903 26.2815 137.877 27.5006C142.824 28.3645 147.938 29.2581 152.896 28.9857L153 30.924C147.823 31.207 142.598 30.2963 137.545 29.4134C130.473 28.1772 123.792 27.0092 117.243 28.841C109.237 31.0814 103.103 37.46 97.1712 43.6302C96.8329 43.9812 96.4967 44.3323 96.1584 44.6812C91.267 49.7513 87.0224 53.1981 82.8012 55.5236C80.1523 56.9831 77.4694 58.0108 74.8247 58.5746C73.1397 58.9341 71.4333 59.1129 69.7227 59.1129Z" fill="#ED1C24"/>
<path d="M9.27414 111.871C9.24099 111.506 9.0935 111.223 8.83167 111.021C8.57314 110.815 8.20359 110.712 7.723 110.712C7.40482 110.712 7.13967 110.754 6.92755 110.837C6.71543 110.92 6.55633 111.034 6.45027 111.18C6.34421 111.322 6.28953 111.486 6.28621 111.672C6.27958 111.824 6.30941 111.959 6.3757 112.075C6.4453 112.191 6.54473 112.293 6.674 112.383C6.80657 112.469 6.96566 112.545 7.15127 112.612C7.33687 112.678 7.54568 112.736 7.77769 112.786L8.65269 112.984C9.15648 113.094 9.60061 113.24 9.98508 113.422C10.3729 113.604 10.6977 113.821 10.9595 114.073C11.2247 114.325 11.4252 114.615 11.5611 114.943C11.697 115.271 11.7666 115.639 11.7699 116.047C11.7666 116.69 11.6042 117.242 11.2827 117.702C10.9612 118.163 10.4988 118.516 9.89559 118.761C9.29568 119.007 8.57149 119.129 7.723 119.129C6.8712 119.129 6.12878 119.002 5.49573 118.746C4.86268 118.491 4.37049 118.103 4.01917 117.583C3.66784 117.063 3.48721 116.405 3.47726 115.609H5.8338C5.85368 115.938 5.94151 116.211 6.09729 116.43C6.25307 116.648 6.46685 116.814 6.73863 116.927C7.01372 117.04 7.3319 117.096 7.69317 117.096C8.02461 117.096 8.30633 117.051 8.53834 116.962C8.77366 116.872 8.9543 116.748 9.08025 116.589C9.20619 116.43 9.27082 116.247 9.27414 116.042C9.27082 115.85 9.21116 115.686 9.09516 115.55C8.97916 115.411 8.80018 115.291 8.55823 115.192C8.31959 115.089 8.01467 114.995 7.64346 114.908L6.57954 114.66C5.69791 114.458 5.00354 114.131 4.49644 113.68C3.98934 113.226 3.73744 112.613 3.74076 111.841C3.73744 111.211 3.90648 110.659 4.24786 110.185C4.58924 109.711 5.06154 109.342 5.66476 109.077C6.26798 108.812 6.95572 108.679 7.72797 108.679C8.5168 108.679 9.20122 108.813 9.78124 109.082C10.3646 109.347 10.817 109.72 11.1385 110.2C11.46 110.681 11.6241 111.238 11.6307 111.871H9.27414ZM13.0128 119V108.818H17.2188C17.9811 108.818 18.639 108.967 19.1925 109.266C19.7493 109.561 20.1785 109.973 20.4801 110.504C20.7817 111.031 20.9325 111.644 20.9325 112.343C20.9325 113.046 20.7784 113.661 20.4702 114.188C20.1652 114.711 19.7294 115.117 19.1626 115.406C18.5959 115.694 17.9231 115.838 17.1442 115.838H14.549V113.899H16.6868C17.058 113.899 17.3679 113.835 17.6165 113.705C17.8684 113.576 18.0589 113.395 18.1882 113.163C18.3175 112.928 18.3821 112.655 18.3821 112.343C18.3821 112.028 18.3175 111.756 18.1882 111.528C18.0589 111.296 17.8684 111.117 17.6165 110.991C17.3646 110.865 17.0547 110.802 16.6868 110.802H15.4737V119H13.0128ZM22.1456 119V108.818H29.245V110.817H24.6065V112.905H28.8821V114.908H24.6065V117.001H29.245V119H22.1456ZM40.0284 112.507H37.5426C37.5095 112.252 37.4415 112.022 37.3388 111.816C37.236 111.611 37.1001 111.435 36.9311 111.289C36.7621 111.143 36.5616 111.032 36.3295 110.956C36.1009 110.876 35.8473 110.837 35.5689 110.837C35.075 110.837 34.6491 110.958 34.2912 111.2C33.9366 111.442 33.6631 111.791 33.4709 112.249C33.282 112.706 33.1875 113.259 33.1875 113.909C33.1875 114.585 33.2836 115.152 33.4759 115.609C33.6714 116.063 33.9448 116.406 34.2962 116.638C34.6508 116.867 35.0701 116.982 35.554 116.982C35.8258 116.982 36.0727 116.947 36.2947 116.877C36.5201 116.808 36.7173 116.706 36.8864 116.574C37.0587 116.438 37.1996 116.274 37.3089 116.082C37.4216 115.886 37.4995 115.666 37.5426 115.42L40.0284 115.435C39.9853 115.886 39.8544 116.33 39.6357 116.768C39.4202 117.205 39.1236 117.605 38.7457 117.966C38.3679 118.324 37.9072 118.609 37.3636 118.821C36.8234 119.033 36.2036 119.139 35.5043 119.139C34.5829 119.139 33.7576 118.937 33.0284 118.533C32.3026 118.125 31.7292 117.532 31.3082 116.753C30.8873 115.974 30.6768 115.026 30.6768 113.909C30.6768 112.789 30.8906 111.839 31.3182 111.06C31.7457 110.281 32.3241 109.69 33.0533 109.286C33.7824 108.881 34.5994 108.679 35.5043 108.679C36.1207 108.679 36.6908 108.765 37.2145 108.938C37.7382 109.107 38.1989 109.355 38.5966 109.683C38.9943 110.008 39.3175 110.407 39.5661 110.881C39.8146 111.355 39.9688 111.897 40.0284 112.507ZM41.1035 110.817V108.818H49.7093V110.817H46.622V119H44.1958V110.817H41.1035ZM50.9112 119V108.818H55.1172C55.8795 108.818 56.5374 108.956 57.0909 109.231C57.6477 109.503 58.0769 109.894 58.3786 110.404C58.6802 110.911 58.831 111.513 58.831 112.209C58.831 112.915 58.6768 113.515 58.3686 114.009C58.0604 114.499 57.6229 114.874 57.0561 115.132C56.4893 115.387 55.8182 115.515 55.0426 115.515H52.3828V113.576H54.5852C54.9564 113.576 55.2663 113.528 55.5149 113.432C55.7668 113.332 55.9574 113.183 56.0866 112.984C56.2159 112.782 56.2805 112.524 56.2805 112.209C56.2805 111.894 56.2159 111.634 56.0866 111.428C55.9574 111.219 55.7668 111.064 55.5149 110.961C55.263 110.855 54.9531 110.802 54.5852 110.802H53.3722V119H50.9112ZM56.6435 114.347L59.179 119H56.4943L54.0085 114.347H56.6435ZM66.3406 108.818H68.7965V115.386C68.7965 116.145 68.6159 116.806 68.2546 117.369C67.8933 117.929 67.3896 118.364 66.7433 118.672C66.0969 118.977 65.3462 119.129 64.4911 119.129C63.6261 119.129 62.8704 118.977 62.2241 118.672C61.5778 118.364 61.0756 117.929 60.7177 117.369C60.3597 116.806 60.1808 116.145 60.1808 115.386V108.818H62.6417V115.172C62.6417 115.523 62.7179 115.836 62.8704 116.112C63.0262 116.387 63.2433 116.602 63.5217 116.758C63.8001 116.914 64.1232 116.991 64.4911 116.991C64.859 116.991 65.1805 116.914 65.4556 116.758C65.734 116.602 65.9511 116.387 66.1069 116.112C66.2627 115.836 66.3406 115.523 66.3406 115.172V108.818ZM70.339 108.818H73.3865L75.9718 115.122H76.0911L78.6763 108.818H81.7239V119H79.3276V112.746H79.2431L76.7971 118.935H75.2658L72.8198 112.711H72.7353V119H70.339V108.818Z" fill="white"/>
<path d="M89.321 119V108.091H90.642V117.828H95.7131V119H89.321ZM97.5881 119V110.818H98.8452V119H97.5881ZM98.2273 109.455C97.9822 109.455 97.771 109.371 97.5934 109.204C97.4194 109.037 97.3324 108.837 97.3324 108.602C97.3324 108.368 97.4194 108.167 97.5934 108C97.771 107.833 97.9822 107.75 98.2273 107.75C98.4723 107.75 98.6818 107.833 98.8558 108C99.0334 108.167 99.1222 108.368 99.1222 108.602C99.1222 108.837 99.0334 109.037 98.8558 109.204C98.6818 109.371 98.4723 109.455 98.2273 109.455ZM107.838 110.818L104.812 119H103.534L100.508 110.818H101.872L104.131 117.338H104.216L106.474 110.818H107.838ZM112.635 119.17C111.846 119.17 111.166 118.996 110.595 118.648C110.026 118.297 109.588 117.807 109.279 117.178C108.973 116.546 108.821 115.811 108.821 114.973C108.821 114.135 108.973 113.396 109.279 112.757C109.588 112.114 110.017 111.614 110.568 111.255C111.122 110.893 111.768 110.712 112.507 110.712C112.933 110.712 113.354 110.783 113.769 110.925C114.185 111.067 114.563 111.298 114.904 111.617C115.245 111.933 115.516 112.352 115.719 112.874C115.921 113.396 116.022 114.039 116.022 114.803V115.335H109.716V114.249H114.744C114.744 113.787 114.652 113.375 114.467 113.013C114.286 112.651 114.027 112.365 113.689 112.155C113.356 111.946 112.961 111.841 112.507 111.841C112.006 111.841 111.573 111.965 111.207 112.214C110.845 112.459 110.566 112.778 110.371 113.173C110.176 113.567 110.078 113.989 110.078 114.44V115.165C110.078 115.783 110.184 116.306 110.397 116.736C110.614 117.162 110.914 117.487 111.298 117.711C111.681 117.931 112.127 118.041 112.635 118.041C112.965 118.041 113.263 117.995 113.53 117.903C113.799 117.807 114.032 117.665 114.227 117.477C114.423 117.285 114.574 117.047 114.68 116.763L115.895 117.104C115.767 117.516 115.552 117.878 115.25 118.19C114.948 118.499 114.575 118.741 114.131 118.915C113.688 119.085 113.189 119.17 112.635 119.17ZM128.29 110.818C128.226 110.278 127.967 109.859 127.512 109.561C127.058 109.263 126.5 109.114 125.84 109.114C125.357 109.114 124.934 109.192 124.572 109.348C124.213 109.504 123.933 109.719 123.73 109.993C123.531 110.266 123.432 110.577 123.432 110.925C123.432 111.216 123.501 111.466 123.64 111.676C123.782 111.882 123.963 112.054 124.183 112.192C124.403 112.327 124.634 112.439 124.875 112.528C125.117 112.613 125.339 112.683 125.541 112.736L126.649 113.034C126.933 113.109 127.249 113.212 127.597 113.343C127.949 113.474 128.285 113.654 128.604 113.881C128.927 114.105 129.194 114.392 129.403 114.744C129.613 115.096 129.717 115.527 129.717 116.038C129.717 116.628 129.563 117.161 129.254 117.636C128.949 118.112 128.501 118.49 127.912 118.771C127.326 119.051 126.614 119.192 125.776 119.192C124.994 119.192 124.318 119.066 123.746 118.814C123.178 118.561 122.731 118.21 122.404 117.759C122.081 117.308 121.898 116.784 121.855 116.188H123.219C123.254 116.599 123.393 116.94 123.634 117.21C123.879 117.477 124.188 117.675 124.561 117.807C124.938 117.935 125.342 117.999 125.776 117.999C126.28 117.999 126.733 117.917 127.134 117.754C127.535 117.587 127.853 117.356 128.087 117.061C128.322 116.763 128.439 116.415 128.439 116.017C128.439 115.655 128.338 115.36 128.135 115.133C127.933 114.906 127.667 114.721 127.336 114.579C127.006 114.437 126.649 114.312 126.266 114.206L124.923 113.822C124.071 113.577 123.396 113.228 122.899 112.773C122.402 112.319 122.153 111.724 122.153 110.989C122.153 110.378 122.319 109.845 122.649 109.391C122.983 108.933 123.43 108.577 123.991 108.325C124.556 108.07 125.186 107.942 125.882 107.942C126.585 107.942 127.21 108.068 127.757 108.32C128.304 108.569 128.737 108.909 129.057 109.343C129.38 109.776 129.551 110.268 129.568 110.818H128.29ZM135.277 110.818V111.884H131.037V110.818H135.277ZM132.273 108.858H133.53V116.656C133.53 117.011 133.581 117.278 133.684 117.455C133.791 117.629 133.926 117.746 134.089 117.807C134.256 117.864 134.432 117.892 134.617 117.892C134.755 117.892 134.869 117.885 134.958 117.871C135.046 117.853 135.117 117.839 135.171 117.828L135.426 118.957C135.341 118.989 135.222 119.021 135.069 119.053C134.917 119.089 134.723 119.107 134.489 119.107C134.134 119.107 133.786 119.03 133.445 118.877C133.107 118.725 132.827 118.492 132.603 118.18C132.383 117.867 132.273 117.473 132.273 116.997V108.858ZM142.324 115.655V110.818H143.581V119H142.324V117.615H142.239C142.047 118.031 141.749 118.384 141.344 118.675C140.939 118.963 140.428 119.107 139.81 119.107C139.299 119.107 138.844 118.995 138.447 118.771C138.049 118.544 137.736 118.203 137.509 117.748C137.282 117.29 137.168 116.713 137.168 116.017V110.818H138.425V115.932C138.425 116.528 138.592 117.004 138.926 117.359C139.263 117.714 139.693 117.892 140.215 117.892C140.528 117.892 140.845 117.812 141.169 117.652C141.495 117.493 141.769 117.248 141.989 116.917C142.213 116.587 142.324 116.166 142.324 115.655ZM148.973 119.17C148.292 119.17 147.69 118.998 147.168 118.654C146.646 118.306 146.237 117.816 145.943 117.184C145.648 116.548 145.5 115.797 145.5 114.93C145.5 114.071 145.648 113.325 145.943 112.693C146.237 112.061 146.647 111.573 147.173 111.228C147.699 110.884 148.306 110.712 148.995 110.712C149.527 110.712 149.948 110.8 150.257 110.978C150.57 111.152 150.808 111.351 150.971 111.575C151.138 111.795 151.267 111.976 151.36 112.118H151.466V108.091H152.723V119H151.509V117.743H151.36C151.267 117.892 151.136 118.08 150.966 118.308C150.795 118.531 150.552 118.732 150.236 118.909C149.92 119.083 149.499 119.17 148.973 119.17ZM149.144 118.041C149.648 118.041 150.074 117.91 150.422 117.647C150.77 117.381 151.035 117.013 151.216 116.544C151.397 116.072 151.488 115.527 151.488 114.909C151.488 114.298 151.399 113.764 151.221 113.306C151.044 112.844 150.781 112.485 150.433 112.23C150.085 111.971 149.655 111.841 149.144 111.841C148.611 111.841 148.167 111.978 147.812 112.251C147.461 112.521 147.196 112.888 147.019 113.354C146.845 113.815 146.758 114.334 146.758 114.909C146.758 115.491 146.846 116.021 147.024 116.496C147.205 116.969 147.471 117.345 147.823 117.626C148.178 117.903 148.618 118.041 149.144 118.041ZM155.2 119V110.818H156.457V119H155.2ZM155.84 109.455C155.595 109.455 155.383 109.371 155.206 109.204C155.032 109.037 154.945 108.837 154.945 108.602C154.945 108.368 155.032 108.167 155.206 108C155.383 107.833 155.595 107.75 155.84 107.75C156.085 107.75 156.294 107.833 156.468 108C156.646 108.167 156.734 108.368 156.734 108.602C156.734 108.837 156.646 109.037 156.468 109.204C156.294 109.371 156.085 109.455 155.84 109.455ZM162.084 119.17C161.345 119.17 160.697 118.995 160.14 118.643C159.586 118.292 159.152 117.8 158.84 117.168C158.531 116.536 158.376 115.797 158.376 114.952C158.376 114.099 158.531 113.355 158.84 112.72C159.152 112.084 159.586 111.591 160.14 111.239C160.697 110.887 161.345 110.712 162.084 110.712C162.822 110.712 163.469 110.887 164.023 111.239C164.58 111.591 165.013 112.084 165.322 112.72C165.635 113.355 165.791 114.099 165.791 114.952C165.791 115.797 165.635 116.536 165.322 117.168C165.013 117.8 164.58 118.292 164.023 118.643C163.469 118.995 162.822 119.17 162.084 119.17ZM162.084 118.041C162.645 118.041 163.107 117.897 163.469 117.61C163.831 117.322 164.099 116.944 164.273 116.475C164.447 116.006 164.534 115.499 164.534 114.952C164.534 114.405 164.447 113.895 164.273 113.423C164.099 112.951 163.831 112.569 163.469 112.278C163.107 111.987 162.645 111.841 162.084 111.841C161.523 111.841 161.061 111.987 160.699 112.278C160.337 112.569 160.069 112.951 159.895 113.423C159.721 113.895 159.634 114.405 159.634 114.952C159.634 115.499 159.721 116.006 159.895 116.475C160.069 116.944 160.337 117.322 160.699 117.61C161.061 117.897 161.523 118.041 162.084 118.041Z" fill="white"/>
</svg>
