<svg width="159" height="19" viewBox="0 0 159 19" fill="none" xmlns="http://www.w3.org/2000/svg">
<rect width="159" height="19" fill="#232327"/>
<path d="M31.9297 7.39844C31.9036 7.11198 31.7878 6.88932 31.582 6.73047C31.3789 6.56901 31.0885 6.48828 30.7109 6.48828C30.4609 6.48828 30.2526 6.52083 30.0859 6.58594C29.9193 6.65104 29.7943 6.74089 29.7109 6.85547C29.6276 6.96745 29.5846 7.09635 29.582 7.24219C29.5768 7.36198 29.6003 7.46745 29.6523 7.55859C29.707 7.64974 29.7852 7.73047 29.8867 7.80078C29.9909 7.86849 30.1159 7.92839 30.2617 7.98047C30.4076 8.03255 30.5716 8.07812 30.7539 8.11719L31.4414 8.27344C31.8372 8.35938 32.1862 8.47396 32.4883 8.61719C32.793 8.76042 33.0482 8.93099 33.2539 9.12891C33.4622 9.32682 33.6198 9.55469 33.7266 9.8125C33.8333 10.0703 33.888 10.3594 33.8906 10.6797C33.888 11.1849 33.7604 11.6185 33.5078 11.9805C33.2552 12.3424 32.8919 12.6198 32.418 12.8125C31.9466 13.0052 31.3776 13.1016 30.7109 13.1016C30.0417 13.1016 29.4583 13.0013 28.9609 12.8008C28.4635 12.6003 28.0768 12.2956 27.8008 11.8867C27.5247 11.4779 27.3828 10.9609 27.375 10.3359H29.2266C29.2422 10.5938 29.3112 10.8086 29.4336 10.9805C29.556 11.1523 29.724 11.2826 29.9375 11.3711C30.1536 11.4596 30.4036 11.5039 30.6875 11.5039C30.9479 11.5039 31.1693 11.4687 31.3516 11.3984C31.5365 11.3281 31.6784 11.2305 31.7773 11.1055C31.8763 10.9805 31.9271 10.8372 31.9297 10.6758C31.9271 10.5247 31.8802 10.3958 31.7891 10.2891C31.6979 10.1797 31.5573 10.0859 31.3672 10.0078C31.1797 9.92708 30.9401 9.85286 30.6484 9.78516L29.8125 9.58984C29.1198 9.43099 28.5742 9.17448 28.1758 8.82031C27.7773 8.46354 27.5794 7.98177 27.582 7.375C27.5794 6.88021 27.7122 6.44661 27.9805 6.07422C28.2487 5.70182 28.6198 5.41146 29.0938 5.20313C29.5677 4.99479 30.1081 4.89062 30.7148 4.89062C31.3346 4.89062 31.8724 4.99609 32.3281 5.20703C32.7865 5.41536 33.1419 5.70833 33.3945 6.08594C33.6471 6.46354 33.776 6.90104 33.7813 7.39844H31.9297ZM34.8672 13V5H38.1719C38.7708 5 39.2878 5.11719 39.7227 5.35156C40.1602 5.58333 40.4974 5.90755 40.7344 6.32422C40.9714 6.73828 41.0898 7.22005 41.0898 7.76953C41.0898 8.32161 40.9687 8.80469 40.7266 9.21875C40.487 9.63021 40.1445 9.94922 39.6992 10.1758C39.2539 10.4023 38.7253 10.5156 38.1133 10.5156H36.0742V8.99219H37.7539C38.0456 8.99219 38.2891 8.94141 38.4844 8.83984C38.6823 8.73828 38.832 8.59635 38.9336 8.41406C39.0352 8.22917 39.0859 8.01432 39.0859 7.76953C39.0859 7.52213 39.0352 7.30859 38.9336 7.12891C38.832 6.94661 38.6823 6.80599 38.4844 6.70703C38.2865 6.60807 38.043 6.55859 37.7539 6.55859H36.8008V13H34.8672ZM42.043 13V5H47.6211V6.57031H43.9766V8.21094H47.3359V9.78516H43.9766V11.4297H47.6211V13H42.043ZM56.0938 7.89844H54.1406C54.1146 7.69792 54.0612 7.51693 53.9805 7.35547C53.8997 7.19401 53.793 7.05599 53.6602 6.94141C53.5273 6.82682 53.3698 6.73958 53.1875 6.67969C53.0078 6.61719 52.8086 6.58594 52.5898 6.58594C52.2018 6.58594 51.8672 6.68099 51.5859 6.87109C51.3073 7.0612 51.0924 7.33594 50.9414 7.69531C50.793 8.05469 50.7188 8.48958 50.7188 9C50.7188 9.53125 50.7943 9.97656 50.9453 10.3359C51.099 10.6927 51.3138 10.9622 51.5898 11.1445C51.8685 11.3242 52.1979 11.4141 52.5781 11.4141C52.7917 11.4141 52.9857 11.3867 53.1602 11.332C53.3372 11.2773 53.4922 11.1979 53.625 11.0938C53.7604 10.987 53.8711 10.8581 53.957 10.707C54.0456 10.5534 54.1068 10.3802 54.1406 10.1875L56.0938 10.1992C56.0599 10.5534 55.957 10.9023 55.7852 11.2461C55.6159 11.5898 55.3828 11.9036 55.0859 12.1875C54.7891 12.4687 54.4271 12.6927 54 12.8594C53.5755 13.026 53.0885 13.1094 52.5391 13.1094C51.8151 13.1094 51.1667 12.9505 50.5938 12.6328C50.0234 12.3125 49.5729 11.8464 49.2422 11.2344C48.9115 10.6224 48.7461 9.8776 48.7461 9C48.7461 8.11979 48.9141 7.3737 49.25 6.76172C49.5859 6.14974 50.0404 5.6849 50.6133 5.36719C51.1862 5.04948 51.8281 4.89062 52.5391 4.89062C53.0234 4.89062 53.4714 4.95833 53.8828 5.09375C54.2943 5.22656 54.6562 5.42187 54.9687 5.67969C55.2813 5.9349 55.5352 6.2487 55.7305 6.62109C55.9258 6.99349 56.0469 7.41927 56.0938 7.89844ZM56.9385 6.57031V5H63.7002V6.57031H61.2744V13H59.3682V6.57031H56.9385ZM64.6445 13V5H67.9492C68.5482 5 69.0651 5.10807 69.5 5.32422C69.9375 5.53776 70.2747 5.84505 70.5117 6.24609C70.7487 6.64453 70.8672 7.11719 70.8672 7.66406C70.8672 8.21875 70.7461 8.6901 70.5039 9.07812C70.2617 9.46354 69.918 9.75781 69.4727 9.96094C69.0273 10.1615 68.5 10.2617 67.8906 10.2617H65.8008V8.73828H67.5313C67.8229 8.73828 68.0664 8.70052 68.2617 8.625C68.4596 8.54687 68.6094 8.42969 68.7109 8.27344C68.8125 8.11458 68.8633 7.91146 68.8633 7.66406C68.8633 7.41667 68.8125 7.21224 68.7109 7.05078C68.6094 6.88672 68.4596 6.76432 68.2617 6.68359C68.0638 6.60026 67.8203 6.55859 67.5313 6.55859H66.5781V13H64.6445ZM69.1484 9.34375L71.1406 13H69.0313L67.0781 9.34375H69.1484ZM76.7676 5H78.6973V10.1602C78.6973 10.7565 78.5553 11.276 78.2715 11.7187C77.9876 12.1589 77.5918 12.5 77.084 12.7422C76.5762 12.9818 75.9863 13.1016 75.3145 13.1016C74.6348 13.1016 74.041 12.9818 73.5332 12.7422C73.0254 12.5 72.6309 12.1589 72.3496 11.7187C72.0684 11.276 71.9277 10.7565 71.9277 10.1602V5H73.8613V9.99219C73.8613 10.2682 73.9212 10.5143 74.041 10.7305C74.1634 10.9466 74.334 11.1159 74.5527 11.2383C74.7715 11.3607 75.0254 11.4219 75.3145 11.4219C75.6035 11.4219 75.8561 11.3607 76.0723 11.2383C76.291 11.1159 76.4616 10.9466 76.584 10.7305C76.7064 10.5143 76.7676 10.2682 76.7676 9.99219V5ZM79.9092 5H82.3037L84.335 9.95312H84.4287L86.46 5H88.8545V13H86.9717V8.08594H86.9053L84.9834 12.9492H83.7803L81.8584 8.05859H81.792V13H79.9092V5Z" fill="white"/>
<path d="M95.0568 13V4.27273H96.1136V12.0625H100.17V13H95.0568ZM101.67 13V6.45455H102.676V13H101.67ZM102.182 5.36364C101.986 5.36364 101.817 5.29688 101.675 5.16335C101.536 5.02983 101.466 4.86932 101.466 4.68182C101.466 4.49432 101.536 4.33381 101.675 4.20028C101.817 4.06676 101.986 4 102.182 4C102.378 4 102.545 4.06676 102.685 4.20028C102.827 4.33381 102.898 4.49432 102.898 4.68182C102.898 4.86932 102.827 5.02983 102.685 5.16335C102.545 5.29688 102.378 5.36364 102.182 5.36364ZM109.87 6.45455L107.45 13H106.427L104.007 6.45455H105.098L106.904 11.6705H106.973L108.779 6.45455H109.87ZM113.708 13.1364C113.077 13.1364 112.533 12.9972 112.076 12.7188C111.621 12.4375 111.27 12.0455 111.023 11.5426C110.779 11.0369 110.657 10.4489 110.657 9.77841C110.657 9.10795 110.779 8.51705 111.023 8.00568C111.27 7.49148 111.614 7.09091 112.054 6.80398C112.498 6.5142 113.015 6.36932 113.605 6.36932C113.946 6.36932 114.283 6.42614 114.615 6.53977C114.948 6.65341 115.25 6.83807 115.523 7.09375C115.796 7.34659 116.013 7.68182 116.175 8.09943C116.337 8.51705 116.418 9.03125 116.418 9.64205V10.0682H111.373V9.19886H115.395C115.395 8.82955 115.321 8.5 115.174 8.21023C115.029 7.92045 114.821 7.69176 114.551 7.52415C114.284 7.35653 113.969 7.27273 113.605 7.27273C113.205 7.27273 112.858 7.37216 112.566 7.57102C112.276 7.76705 112.053 8.02273 111.897 8.33807C111.74 8.65341 111.662 8.99148 111.662 9.35227V9.93182C111.662 10.4261 111.748 10.8452 111.918 11.1889C112.091 11.5298 112.331 11.7898 112.638 11.9688C112.945 12.1449 113.301 12.233 113.708 12.233C113.972 12.233 114.211 12.196 114.424 12.1222C114.64 12.0455 114.826 11.9318 114.982 11.7812C115.138 11.6278 115.259 11.4375 115.344 11.2102L116.316 11.483C116.213 11.8125 116.042 12.1023 115.8 12.3523C115.559 12.5994 115.26 12.7926 114.905 12.9318C114.55 13.0682 114.151 13.1364 113.708 13.1364ZM126.232 6.45455C126.181 6.02273 125.973 5.6875 125.61 5.44886C125.246 5.21023 124.8 5.09091 124.272 5.09091C123.885 5.09091 123.547 5.15341 123.257 5.27841C122.971 5.40341 122.746 5.57528 122.584 5.79403C122.425 6.01278 122.346 6.26136 122.346 6.53977C122.346 6.77273 122.401 6.97301 122.512 7.14062C122.625 7.3054 122.77 7.44318 122.946 7.55398C123.123 7.66193 123.307 7.75142 123.5 7.82244C123.694 7.89062 123.871 7.94602 124.033 7.98864L124.919 8.22727C125.147 8.28693 125.4 8.36932 125.678 8.47443C125.959 8.57955 126.228 8.72301 126.483 8.90483C126.742 9.08381 126.955 9.31392 127.123 9.59517C127.29 9.87642 127.374 10.2216 127.374 10.6307C127.374 11.1023 127.25 11.5284 127.003 11.9091C126.759 12.2898 126.401 12.5923 125.929 12.8168C125.461 13.0412 124.891 13.1534 124.221 13.1534C123.596 13.1534 123.054 13.0526 122.597 12.8509C122.142 12.6491 121.784 12.3679 121.523 12.0071C121.265 11.6463 121.118 11.2273 121.084 10.75H122.175C122.203 11.0795 122.314 11.3523 122.507 11.5682C122.703 11.7812 122.951 11.9403 123.249 12.0455C123.55 12.1477 123.874 12.1989 124.221 12.1989C124.624 12.1989 124.986 12.1335 125.307 12.0028C125.628 11.8693 125.882 11.6847 126.07 11.4489C126.257 11.2102 126.351 10.9318 126.351 10.6136C126.351 10.3239 126.27 10.0881 126.108 9.90625C125.946 9.72443 125.733 9.5767 125.469 9.46307C125.205 9.34943 124.919 9.25 124.613 9.16477L123.539 8.85795C122.857 8.66193 122.317 8.3821 121.919 8.01847C121.522 7.65483 121.323 7.17898 121.323 6.59091C121.323 6.10227 121.455 5.67614 121.719 5.3125C121.986 4.94602 122.344 4.66193 122.793 4.46023C123.245 4.25568 123.749 4.15341 124.306 4.15341C124.868 4.15341 125.368 4.25426 125.806 4.45597C126.243 4.65483 126.59 4.92756 126.846 5.27415C127.104 5.62074 127.24 6.0142 127.255 6.45455H126.232ZM131.822 6.45455V7.30682H128.43V6.45455H131.822ZM129.418 4.88636H130.424V11.125C130.424 11.4091 130.465 11.6222 130.548 11.7642C130.633 11.9034 130.741 11.9972 130.871 12.0455C131.005 12.0909 131.146 12.1136 131.293 12.1136C131.404 12.1136 131.495 12.108 131.566 12.0966C131.637 12.0824 131.694 12.071 131.737 12.0625L131.941 12.9659C131.873 12.9915 131.778 13.017 131.656 13.0426C131.533 13.071 131.379 13.0852 131.191 13.0852C130.907 13.0852 130.629 13.0241 130.356 12.902C130.086 12.7798 129.862 12.5938 129.683 12.3438C129.506 12.0938 129.418 11.7784 129.418 11.3977V4.88636ZM137.46 10.3239V6.45455H138.465V13H137.46V11.892H137.391C137.238 12.2244 136.999 12.5071 136.675 12.7401C136.352 12.9702 135.942 13.0852 135.448 13.0852C135.039 13.0852 134.675 12.9957 134.357 12.8168C134.039 12.6349 133.789 12.3622 133.607 11.9986C133.425 11.6321 133.335 11.1705 133.335 10.6136V6.45455H134.34V10.5455C134.34 11.0227 134.474 11.4034 134.741 11.6875C135.011 11.9716 135.354 12.1136 135.772 12.1136C136.022 12.1136 136.276 12.0497 136.535 11.9219C136.796 11.794 137.015 11.598 137.191 11.3338C137.37 11.0696 137.46 10.733 137.46 10.3239ZM142.779 13.1364C142.233 13.1364 141.752 12.9986 141.334 12.723C140.917 12.4446 140.59 12.0526 140.354 11.5469C140.118 11.0384 140 10.4375 140 9.74432C140 9.05682 140.118 8.46023 140.354 7.95455C140.59 7.44886 140.918 7.05824 141.338 6.78267C141.759 6.5071 142.245 6.36932 142.796 6.36932C143.222 6.36932 143.559 6.44034 143.806 6.58239C144.056 6.72159 144.246 6.88068 144.377 7.05966C144.51 7.2358 144.614 7.38068 144.688 7.49432H144.773V4.27273H145.779V13H144.807V11.9943H144.688C144.614 12.1136 144.509 12.2642 144.373 12.446C144.236 12.625 144.042 12.7855 143.789 12.9276C143.536 13.0668 143.199 13.1364 142.779 13.1364ZM142.915 12.233C143.319 12.233 143.659 12.1278 143.938 11.9176C144.216 11.7045 144.428 11.4105 144.573 11.0355C144.718 10.6577 144.79 10.2216 144.79 9.72727C144.79 9.23864 144.719 8.81108 144.577 8.4446C144.435 8.07528 144.225 7.78835 143.946 7.58381C143.668 7.37642 143.324 7.27273 142.915 7.27273C142.489 7.27273 142.134 7.3821 141.85 7.60085C141.569 7.81676 141.357 8.1108 141.215 8.48295C141.076 8.85227 141.006 9.26705 141.006 9.72727C141.006 10.1932 141.077 10.6165 141.219 10.9972C141.364 11.375 141.577 11.6761 141.858 11.9006C142.142 12.1222 142.495 12.233 142.915 12.233ZM147.76 13V6.45455H148.766V13H147.76ZM148.272 5.36364C148.076 5.36364 147.907 5.29688 147.765 5.16335C147.625 5.02983 147.556 4.86932 147.556 4.68182C147.556 4.49432 147.625 4.33381 147.765 4.20028C147.907 4.06676 148.076 4 148.272 4C148.468 4 148.635 4.06676 148.775 4.20028C148.917 4.33381 148.988 4.49432 148.988 4.68182C148.988 4.86932 148.917 5.02983 148.775 5.16335C148.635 5.29688 148.468 5.36364 148.272 5.36364ZM153.267 13.1364C152.676 13.1364 152.158 12.9957 151.712 12.7145C151.268 12.4332 150.922 12.0398 150.672 11.5341C150.425 11.0284 150.301 10.4375 150.301 9.76136C150.301 9.07955 150.425 8.48437 150.672 7.97585C150.922 7.46733 151.268 7.07244 151.712 6.79119C152.158 6.50994 152.676 6.36932 153.267 6.36932C153.858 6.36932 154.375 6.50994 154.818 6.79119C155.264 7.07244 155.611 7.46733 155.858 7.97585C156.108 8.48437 156.233 9.07955 156.233 9.76136C156.233 10.4375 156.108 11.0284 155.858 11.5341C155.611 12.0398 155.264 12.4332 154.818 12.7145C154.375 12.9957 153.858 13.1364 153.267 13.1364ZM153.267 12.233C153.716 12.233 154.085 12.1179 154.375 11.8878C154.665 11.6577 154.879 11.3551 155.018 10.9801C155.158 10.6051 155.227 10.1989 155.227 9.76136C155.227 9.32386 155.158 8.91619 155.018 8.53835C154.879 8.16051 154.665 7.85511 154.375 7.62216C154.085 7.3892 153.716 7.27273 153.267 7.27273C152.818 7.27273 152.449 7.3892 152.159 7.62216C151.869 7.85511 151.655 8.16051 151.516 8.53835C151.376 8.91619 151.307 9.32386 151.307 9.76136C151.307 10.1989 151.376 10.6051 151.516 10.9801C151.655 11.3551 151.869 11.6577 152.159 11.8878C152.449 12.1179 152.818 12.233 153.267 12.233Z" fill="white"/>
<path d="M12.5042 11L16 8.872L12.5042 3L9 8.892L12.5042 11Z" stroke="#C5DAF7" stroke-width="0.6" stroke-miterlimit="10" stroke-linecap="round" stroke-linejoin="round"/>
<path d="M12.5042 12.2696L16 10L12.5042 15L9 10.0213L12.5042 12.2696Z" stroke="#C5DAF7" stroke-width="0.5" stroke-miterlimit="10" stroke-linecap="round" stroke-linejoin="round"/>
<mask id="mask0_4_210" style="mask-type:luminance" maskUnits="userSpaceOnUse" x="5" y="8" width="17" height="4">
<path d="M5.27319 8.20842H21.7704V11.2173H5.27319V8.20842Z" fill="white"/>
</mask>
<g mask="url(#mask0_4_210)">
<path d="M11.0339 11.2173C10.653 11.2173 10.2846 11.1504 9.92242 11.0165C9.40595 10.825 8.95578 10.5026 8.52048 10.1909C8.37981 10.09 8.23428 9.98582 8.09004 9.8888C7.17256 9.27046 6.25507 9.10391 5.36379 9.39303L5.27356 9.11232C5.78388 8.94674 6.30779 8.91666 6.83137 9.02241C7.3058 9.11879 7.78443 9.3277 8.25368 9.64366C8.40147 9.74327 8.54862 9.8487 8.69091 9.95057C9.11036 10.2513 9.54436 10.5621 10.024 10.7397C11.4838 11.2801 12.908 10.4945 13.9859 9.74974C14.0373 9.71417 14.0891 9.67827 14.1412 9.64237C15.0835 8.98878 16.0579 8.3132 17.2083 8.22879C18.1497 8.15959 19.0377 8.50659 19.8967 8.84196C20.5034 9.07901 21.1304 9.32415 21.7659 9.41664L21.7239 9.70867C21.0551 9.611 20.4122 9.35972 19.7903 9.11685C18.9236 8.77857 18.1051 8.45873 17.2296 8.52309C16.1588 8.60167 15.2177 9.25397 14.3077 9.88524C14.256 9.92114 14.2039 9.95704 14.1521 9.99293C13.3983 10.5139 12.7683 10.8441 12.1694 11.0323C11.7765 11.1556 11.3994 11.2173 11.0339 11.2173Z" fill="#5E2590"/>
</g>
<path d="M10.8955 10.9592C10.5553 10.9592 10.218 10.9065 9.89136 10.8018C9.35129 10.6291 8.8733 10.3183 8.41084 10.0175C8.26143 9.92017 8.10717 9.81959 7.9542 9.72645C6.97948 9.13172 6.02642 9.00269 5.12058 9.34226L5.01807 9.06575C5.53486 8.87203 6.07235 8.81673 6.61533 8.90146C7.10755 8.97811 7.60946 9.17085 8.10652 9.4742C8.26305 9.56993 8.41925 9.67148 8.5706 9.76979C9.01657 10.0599 9.47773 10.36 9.9803 10.5207C11.51 11.01 12.9413 10.1346 14.0176 9.31735C14.069 9.27822 14.1208 9.23877 14.1725 9.19931C15.1123 8.48331 16.0838 7.74273 17.2629 7.60269C18.2283 7.48789 19.1577 7.80352 20.0571 8.10881C20.6926 8.32484 21.3497 8.54799 22.0091 8.61396L21.98 8.90761C21.2876 8.83808 20.6143 8.60943 19.963 8.38855C19.0545 8.08003 18.1969 7.78865 17.2975 7.89569C16.1976 8.02635 15.2582 8.74203 14.3501 9.43442C14.298 9.47388 14.2462 9.51333 14.1945 9.55246C13.4429 10.1236 12.8097 10.4926 12.2024 10.7138C11.8208 10.8529 11.443 10.9337 11.0805 10.9541C11.0187 10.9573 10.957 10.9592 10.8955 10.9592Z" fill="#2C3892"/>
<path d="M10.7568 10.708C10.4548 10.708 10.1543 10.6675 9.86003 10.587C9.29634 10.4328 8.79055 10.1333 8.30125 9.84352C8.1431 9.75006 7.97946 9.65304 7.81776 9.56346C6.78645 8.99266 5.79717 8.90114 4.8771 9.29116L4.76294 9.0195C5.28652 8.79733 5.83695 8.71713 6.39966 8.78051C6.90966 8.83808 7.43454 9.01465 7.95941 9.30507C8.12499 9.39691 8.29025 9.4949 8.45033 9.58933C8.92282 9.86907 9.41147 10.1585 9.937 10.3024C11.5369 10.7403 12.9753 9.77464 14.05 8.88465C14.1014 8.84196 14.1528 8.79927 14.2046 8.75626C15.1415 7.97751 16.1104 7.17257 17.3182 6.97659C18.3069 6.81651 19.2784 7.1011 20.2175 7.37632C20.8821 7.571 21.5697 7.77248 22.2523 7.81161L22.2355 8.10623C21.5195 8.06483 20.8158 7.85883 20.1354 7.65961C19.1856 7.38117 18.2881 7.11824 17.3651 7.26798C16.2358 7.45102 15.2983 8.23009 14.3915 8.98361C14.3397 9.02662 14.2883 9.06963 14.2366 9.11232C13.4869 9.73325 12.8508 10.1411 12.2347 10.3956C11.848 10.5553 11.4628 10.6549 11.0902 10.6915C10.979 10.7025 10.8677 10.708 10.7568 10.708Z" fill="#40B93C"/>
<path d="M10.6184 10.4622C10.3535 10.4622 10.0889 10.4321 9.82829 10.3716C9.24132 10.2358 8.70771 9.94798 8.19157 9.66954C8.02469 9.57931 7.852 9.48617 7.68125 9.40047C6.59301 8.85328 5.56751 8.79927 4.63289 9.24006L4.50806 8.97326C5.03843 8.72295 5.60211 8.61752 6.18423 8.65989C6.71202 8.69837 7.25986 8.85878 7.81255 9.13658C7.98718 9.22422 8.16182 9.31865 8.33063 9.40952C8.82931 9.67892 9.34546 9.95736 9.89394 10.0841C11.564 10.4706 13.0096 9.4147 14.0826 8.45194C14.134 8.4057 14.1854 8.35945 14.2369 8.3132C15.1712 7.47204 16.1372 6.6021 17.3738 6.35082C18.3861 6.14514 19.399 6.39868 20.3785 6.64382C21.0722 6.81748 21.7895 6.99697 22.4958 7.00958L22.4906 7.30452C21.751 7.29159 21.0172 7.1079 20.3074 6.93003C19.3158 6.68198 18.3793 6.44752 17.432 6.63994C16.2736 6.87537 15.3377 7.71815 14.4328 8.53279C14.3811 8.57936 14.3297 8.62561 14.2783 8.67185C13.5306 9.3429 12.8915 9.78952 12.2667 10.077C11.8748 10.2575 11.4818 10.3758 11.0996 10.4289C10.9395 10.4512 10.7788 10.4622 10.6184 10.4622Z" fill="#F8BD0A"/>
<path d="M10.4799 10.2216C10.2516 10.2216 10.023 10.1996 9.79593 10.1559C9.18568 10.0385 8.62426 9.76235 8.08159 9.4949C7.90566 9.40823 7.72391 9.31865 7.54443 9.23683C6.39895 8.71357 5.33723 8.6974 4.38838 9.18897L4.25385 8.92701C4.79069 8.64889 5.36763 8.51856 5.96915 8.53958C6.51473 8.55898 7.08585 8.70322 7.66603 8.96841C7.84939 9.05217 8.03308 9.1424 8.21063 9.23004C8.73615 9.48876 9.27946 9.75621 9.85123 9.86649C11.5914 10.2012 13.0445 9.05508 14.1159 8.01923C14.167 7.96975 14.2181 7.91995 14.2695 7.87015C15.2012 6.96625 16.1646 6.03195 17.4298 5.72537C18.4653 5.47441 19.5199 5.69691 20.5396 5.91197C21.2624 6.06429 22.0097 6.22211 22.7396 6.20755L22.7455 6.50249C21.9816 6.51769 21.218 6.35664 20.4794 6.20044C19.4458 5.98247 18.4698 5.77646 17.4986 6.0119C16.3108 6.30004 15.3768 7.20588 14.4736 8.08229C14.4221 8.1321 14.3707 8.1819 14.3193 8.23171C13.5735 8.95256 12.9316 9.43766 12.2984 9.75847C11.9009 9.95962 11.5009 10.0967 11.1086 10.1663C10.9 10.2031 10.6901 10.2216 10.4799 10.2216Z" fill="#F14624"/>
<mask id="mask1_4_210" style="mask-type:luminance" maskUnits="userSpaceOnUse" x="4" y="4" width="19" height="6">
<path d="M4 4.9463H23V9.9952H4V4.9463Z" fill="white"/>
</mask>
<g mask="url(#mask1_4_210)">
<path d="M10.3418 9.98496C10.1491 9.98496 9.95603 9.97009 9.76361 9.94001C9.13007 9.84105 8.54116 9.57586 7.97134 9.31973C7.78668 9.23662 7.59587 9.15092 7.40765 9.07265C6.20493 8.57333 5.10667 8.59499 4.14359 9.13766L4 8.88056C4.54299 8.57462 5.13319 8.41939 5.75347 8.41939H5.75444C6.3178 8.41939 6.91188 8.54745 7.51955 8.80003C7.71197 8.87991 7.90472 8.96658 8.09132 9.05066C8.64336 9.29871 9.21416 9.55549 9.80889 9.64863C11.6196 9.9316 13.0797 8.69492 14.1495 7.58599C14.2006 7.53295 14.2517 7.47991 14.3028 7.42655C15.2316 6.46056 16.1921 5.46158 17.4864 5.09938C18.5452 4.80314 19.6412 4.9946 20.7013 5.1799C21.4532 5.3112 22.2306 5.44703 22.9842 5.40564L23 5.70025C22.2132 5.74326 21.4189 5.60485 20.6508 5.47064C19.5759 5.28274 18.5604 5.1052 17.565 5.38364C16.348 5.72418 15.4157 6.69373 14.514 7.63159C14.4626 7.68495 14.4115 7.73831 14.3601 7.79135C13.6166 8.56201 12.9714 9.08591 12.3298 9.43939C11.9271 9.66124 11.5193 9.81744 11.1174 9.90314C10.8612 9.9578 10.6019 9.98496 10.3418 9.98496Z" fill="#ED1C24"/>
</g>
</svg>
