<svg width="256" height="256" viewBox="0 0 256 256" fill="none" xmlns="http://www.w3.org/2000/svg">
<path d="M199 12H57C32.1472 12 12 32.1472 12 57V199C12 223.853 32.1472 244 57 244H199C223.853 244 244 223.853 244 199V57C244 32.1472 223.853 12 199 12Z" fill="#161616"/>
<path d="M121.153 163.633L162.603 138.895L121.153 70.6333L79.6034 139.128L121.153 163.633Z" stroke="#C5DAF7" stroke-width="7.20537" stroke-miterlimit="10" stroke-linecap="round" stroke-linejoin="round"/>
<path d="M121.153 175.599L162.603 150.633L121.153 205.633L79.6034 150.868L121.153 175.599Z" stroke="#C5DAF7" stroke-width="7.20537" stroke-miterlimit="10" stroke-linecap="round" stroke-linejoin="round"/>
<path d="M101.745 161.026C97.643 161.026 93.6764 160.305 89.7759 158.864C84.2143 156.802 79.3666 153.33 74.6791 149.973C73.1642 148.886 71.597 147.765 70.0438 146.72C60.1638 140.061 50.2838 138.268 40.6859 141.381L39.7142 138.358C45.2097 136.575 50.8514 136.251 56.4897 137.39C61.5986 138.428 66.7528 140.678 71.806 144.08C73.3975 145.153 74.982 146.288 76.5144 147.385C81.0312 150.624 85.7048 153.971 90.8694 155.882C106.59 161.702 121.927 153.243 133.534 145.222C134.088 144.839 134.645 144.453 135.206 144.066C145.354 137.028 155.847 129.753 168.234 128.844C178.372 128.099 187.935 131.835 197.185 135.447C203.718 138 210.471 140.639 217.314 141.635L216.861 144.78C209.659 143.728 202.736 141.022 196.039 138.407C186.706 134.764 177.891 131.32 168.464 132.013C156.933 132.859 146.799 139.884 136.999 146.682C136.442 147.068 135.881 147.455 135.324 147.841C127.206 153.452 120.422 157.007 113.973 159.034C109.741 160.361 105.681 161.026 101.745 161.026Z" fill="#5E2590"/>
<path d="M100.255 158.247C96.5913 158.247 92.959 157.68 89.4416 156.551C83.6258 154.691 78.4786 151.345 73.4985 148.106C71.8896 147.058 70.2284 145.975 68.5811 144.972C58.0847 138.567 47.8217 137.178 38.067 140.834L36.9631 137.857C42.5282 135.771 48.3162 135.175 54.1634 136.088C59.4638 136.913 64.8687 138.989 70.2214 142.255C71.907 143.286 73.5891 144.38 75.2189 145.438C80.0213 148.562 84.9874 151.794 90.3993 153.525C106.872 158.794 122.286 149.367 133.876 140.566C134.429 140.145 134.986 139.72 135.544 139.295C145.664 131.585 156.126 123.61 168.823 122.102C179.218 120.865 189.227 124.264 198.912 127.552C205.755 129.878 212.832 132.281 219.933 132.992L219.619 136.154C212.163 135.405 204.913 132.943 197.899 130.564C188.116 127.242 178.881 124.104 169.196 125.257C157.351 126.664 147.235 134.371 137.456 141.827C136.895 142.252 136.338 142.677 135.78 143.098C127.687 149.248 120.868 153.222 114.328 155.604C110.219 157.101 106.151 157.972 102.247 158.191C101.582 158.226 100.917 158.247 100.255 158.247Z" fill="#2C3892"/>
<path d="M98.7609 155.541C95.5082 155.541 92.2729 155.106 89.1038 154.239C83.0337 152.578 77.587 149.353 72.3179 146.232C70.615 145.226 68.8528 144.181 67.1115 143.216C56.0057 137.07 45.3525 136.084 35.4447 140.284L34.2153 137.359C39.8536 134.966 45.7809 134.103 51.8405 134.785C57.3325 135.405 62.9847 137.307 68.6369 140.434C70.4199 141.423 72.1995 142.478 73.9234 143.495C79.0114 146.507 84.2735 149.624 89.9327 151.174C107.161 155.889 122.651 145.491 134.224 135.907C134.777 135.447 135.331 134.987 135.888 134.524C145.977 126.138 156.411 117.47 169.418 115.36C180.065 113.636 190.526 116.7 200.64 119.664C207.796 121.76 215.2 123.93 222.552 124.351L222.371 127.524C214.66 127.078 207.082 124.86 199.755 122.715C189.527 119.716 179.863 116.885 169.923 118.497C157.762 120.468 147.666 128.858 137.901 136.972C137.344 137.435 136.79 137.899 136.233 138.358C128.161 145.045 121.31 149.436 114.676 152.177C110.511 153.897 106.363 154.97 102.351 155.364C101.153 155.482 99.9555 155.541 98.7609 155.541Z" fill="#40B93C"/>
<path d="M97.2704 152.894C94.4182 152.894 91.5695 152.571 88.7626 151.919C82.4417 150.457 76.6955 147.357 71.1374 144.359C69.3404 143.387 67.4807 142.384 65.6419 141.461C53.9231 135.569 42.8799 134.987 32.8154 139.734L31.4711 136.861C37.1825 134.165 43.2526 133.03 49.5212 133.486C55.2047 133.901 61.1041 135.628 67.0558 138.619C68.9364 139.563 70.817 140.58 72.6349 141.559C78.005 144.46 83.5631 147.458 89.4695 148.823C107.453 152.985 123.02 141.614 134.576 131.247C135.129 130.749 135.683 130.251 136.237 129.753C146.298 120.695 156.7 111.327 170.017 108.621C180.918 106.406 191.825 109.136 202.374 111.776C209.844 113.646 217.568 115.579 225.174 115.715L225.118 118.891C217.154 118.752 209.252 116.773 201.608 114.858C190.93 112.187 180.845 109.662 170.644 111.734C158.17 114.269 148.091 123.345 138.347 132.118C137.79 132.619 137.236 133.117 136.682 133.615C128.631 140.841 121.749 145.651 115.021 148.747C110.8 150.69 106.569 151.965 102.452 152.536C100.729 152.776 98.9978 152.894 97.2704 152.894Z" fill="#F8BD0A"/>
<path d="M95.7799 150.303C93.3212 150.303 90.859 150.067 88.4143 149.597C81.8427 148.332 75.797 145.358 69.9533 142.478C68.0588 141.545 66.1016 140.58 64.1688 139.699C51.8336 134.064 40.4004 133.89 30.1826 139.184L28.7338 136.363C34.5148 133.368 40.7277 131.964 47.2053 132.191C53.0803 132.4 59.2305 133.953 65.4782 136.809C67.4528 137.711 69.4309 138.682 71.3428 139.626C77.002 142.412 82.8527 145.292 89.0098 146.48C107.749 150.084 123.397 137.742 134.934 126.587C135.484 126.054 136.035 125.518 136.588 124.982C146.622 115.248 156.996 105.187 170.62 101.886C181.771 99.1831 193.128 101.579 204.108 103.895C211.892 105.535 219.94 107.235 227.8 107.078L227.863 110.254C219.637 110.418 211.415 108.684 203.46 107.001C192.33 104.654 181.82 102.436 171.362 104.971C158.57 108.074 148.513 117.829 138.786 127.266C138.232 127.803 137.678 128.339 137.125 128.875C129.094 136.638 122.181 141.862 115.362 145.316C111.082 147.483 106.774 148.959 102.55 149.708C100.304 150.105 98.0435 150.303 95.7799 150.303Z" fill="#F14624"/>
<path d="M94.2928 147.758C92.2172 147.758 90.1382 147.598 88.066 147.274C81.2437 146.208 74.902 143.352 68.7657 140.594C66.7772 139.699 64.7225 138.776 62.6956 137.933C49.744 132.556 37.9173 132.79 27.5463 138.633L26 135.865C31.8472 132.57 38.2029 130.899 44.8824 130.899H44.8928C50.9595 130.899 57.3569 132.278 63.9006 134.998C65.9727 135.858 68.0483 136.791 70.0578 137.697C76.0025 140.368 82.1492 143.133 88.5536 144.136C108.052 147.183 123.776 133.866 135.296 121.924C135.847 121.353 136.397 120.782 136.947 120.207C146.949 109.805 157.292 99.0473 171.229 95.1468C182.631 91.9568 194.434 94.0185 205.849 96.014C213.946 97.4279 222.318 98.8906 230.433 98.4448L230.603 101.617C222.13 102.081 213.577 100.59 205.306 99.1448C193.73 97.1214 182.795 95.2095 172.076 98.208C158.971 101.875 148.931 112.316 139.221 122.415C138.668 122.99 138.117 123.564 137.564 124.136C129.557 132.434 122.609 138.076 115.7 141.883C111.364 144.272 106.973 145.954 102.644 146.877C99.8858 147.465 97.0928 147.758 94.2928 147.758Z" fill="#ED1C24"/>
</svg>
